<svg xmlns="http://www.w3.org/2000/svg" viewBox="0 0 720 720">
  <rect width="720" height="720" fill="#f3eadc"/>
  <path d="M102 129c135-57 307-58 516 3 34 151 16 304-54 462-154 51-306 48-454-10-51-152-54-303-8-455Z" fill="#fff8ea" stroke="#cfac65" stroke-width="8"/>
  <rect x="196" y="289" width="330" height="210" rx="74" fill="#eec4a0" stroke="#9a6841" stroke-width="9"/>
  <path d="M258 349c66-28 136-28 210 0" fill="none" stroke="#fff3dc" stroke-width="13" stroke-linecap="round"/>
  <text x="360" y="426" text-anchor="middle" font-family="Georgia, serif" font-size="35" fill="#6d4e35">Avena</text>
  <circle cx="253" cy="239" r="30" fill="#f2d49a"/>
  <circle cx="461" cy="240" r="22" fill="#d98a70"/>
  <path d="M132 510c55-36 107-36 157 1-53 33-105 33-157-1ZM421 166c51-33 100-31 148 5-51 31-100 30-148-5Z" fill="#86a873"/>
</svg>
